<svg id="Layer_1" data-name="Layer 1" xmlns="http://www.w3.org/2000/svg" viewBox="0 0 567 119"><defs><style>.cls-1{fill:#231f20;}.cls-2{fill:#fff;}.cls-3{fill:#010101;}.cls-4{fill:#871819;}.cls-5{fill:#b72125;}.cls-6,.cls-7,.cls-8{fill:#ed1e25;}.cls-7{stroke:#ed1e25;stroke-width:0.25px;}.cls-7,.cls-8{stroke-miterlimit:10;}.cls-8{stroke:#ef3b39;stroke-width:0.5px;}</style></defs><title>all</title><path class="cls-1" d="M211.46,30H231V69.42l39.53-.16V30H290v78.59H270.52V89H231.15L231,108.64H211.46Zm19.69-19.69h39.21V29.89H231.15Z"/><path class="cls-1" d="M309.89,10.36h19.53V89H309.89Zm19.69,78.74h58.9v19.53h-58.9Z"/><path class="cls-1" d="M408.32,10.36h19.53V89H408.32ZM428,89.11h58.9v19.53H428Z"/><polygon class="cls-2" points="140.57 9.36 113.94 12.59 100.46 19.39 93.77 26.07 86.78 39.44 81.96 59.3 86.78 79.76 93.62 86.24 100.46 99.61 107.14 106.3 132.62 109.64 160.62 106.3 167.31 99.61 173.99 86.24 180.68 79.56 184.02 59.5 180.8 39.44 173.99 26.07 167.31 19.39 153.94 12.59 140.57 9.36"/><rect class="cls-3" x="113.83" y="6.02" width="40.11" height="6.69"/><rect class="cls-3" x="107.14" y="106.3" width="53.48" height="6.69"/><rect class="cls-3" x="107.14" y="73.02" width="53.48" height="6.69"/><rect class="cls-3" x="163.97" y="56.16" width="40.11" height="6.69" transform="translate(243.52 -124.52) rotate(90)"/><rect class="cls-3" x="63.38" y="56.16" width="40.11" height="6.69" transform="translate(142.93 -23.93) rotate(90)"/><rect class="cls-3" x="153.94" y="12.59" width="13.37" height="6.69"/><rect class="cls-3" x="100.57" y="12.59" width="13.37" height="6.69"/><rect class="cls-3" x="170.77" y="29.42" width="13.37" height="6.69" transform="translate(210.21 -144.7) rotate(90)"/><rect class="cls-3" x="83.43" y="29.42" width="13.37" height="6.69" transform="translate(122.88 -57.36) rotate(90)"/><rect class="cls-4" x="83.43" y="42.79" width="13.37" height="6.69" transform="translate(136.25 -43.99) rotate(90)"/><rect class="cls-4" x="83.43" y="69.73" width="13.37" height="6.69" transform="translate(163.19 -17.04) rotate(90)"/><rect class="cls-4" x="170.77" y="42.79" width="13.37" height="6.69" transform="translate(223.58 -131.32) rotate(90)"/><rect class="cls-3" x="160.62" y="86.24" width="20.06" height="6.69" transform="translate(260.24 -81.07) rotate(90)"/><rect class="cls-3" x="160.62" y="79.56" width="20.06" height="6.69"/><rect class="cls-3" x="87.09" y="86.24" width="20.06" height="6.69" transform="translate(186.7 -7.53) rotate(90)"/><rect class="cls-3" x="87.09" y="79.56" width="20.06" height="6.69"/><rect class="cls-3" x="114.05" y="79.7" width="20.06" height="6.69" transform="translate(207.13 -41.04) rotate(90)"/><rect class="cls-3" x="134" y="79.7" width="20.06" height="6.69" transform="translate(227.07 -60.98) rotate(90)"/><rect class="cls-3" x="167.31" y="19.39" width="6.69" height="6.69"/><rect class="cls-3" x="93.77" y="19.39" width="6.69" height="6.69"/><rect class="cls-5" x="93.62" y="39.44" width="6.69" height="6.69"/><rect class="cls-5" x="153.94" y="26.07" width="6.69" height="6.69"/><rect class="cls-5" x="160.62" y="32.76" width="6.69" height="6.69"/><rect class="cls-6" x="154.05" y="32.76" width="6.57" height="6.69"/><rect class="cls-7" x="120.36" y="32.96" width="6.69" height="6.69"/><rect class="cls-6" x="100.36" y="39.44" width="6.69" height="6.69"/><rect class="cls-6" x="106.99" y="39.44" width="6.69" height="13.95"/><rect class="cls-5" x="153.94" y="59.44" width="13.37" height="6.69"/><rect class="cls-5" x="113.8" y="59.44" width="13.37" height="6.69"/><rect class="cls-5" x="160.77" y="46.13" width="20.06" height="6.69" transform="translate(220.27 -121.32) rotate(90)"/><rect class="cls-8" x="153.94" y="46.13" width="20.06" height="6.69" transform="translate(213.44 -114.49) rotate(90)"/><rect class="cls-6" x="120.36" y="26.07" width="33.7" height="6.69"/><rect class="cls-7" x="103.97" y="42.79" width="26.35" height="6.69" transform="translate(163.27 -71.01) rotate(90)"/><rect class="cls-3" x="160.62" y="99.61" width="6.69" height="6.69"/><rect class="cls-3" x="100.46" y="99.61" width="6.69" height="6.69"/><rect class="cls-4" x="127.2" y="12.59" width="26.74" height="6.8"/><rect class="cls-5" x="127.2" y="19.33" width="26.74" height="6.8"/><rect class="cls-4" x="86.78" y="72.96" width="20.37" height="6.8"/></svg>